<svg width="32" height="32" viewBox="0 0 32 32" fill="none" xmlns="http://www.w3.org/2000/svg">
<g clip-path="url(#clip0_17105_30)">
<circle cx="16" cy="16.8887" r="32" fill="url(#paint0_linear_17105_30)"/>
<path d="M8.68263 26.5575C7.63729 26.5575 6.73063 26.3975 5.96263 26.0775C5.19463 25.7575 4.60796 25.1922 4.20263 24.3815C3.81863 23.5708 3.62663 22.4295 3.62663 20.9575V19.8695C4.13863 19.8695 4.66129 19.8695 5.19463 19.8695C5.72796 19.8695 6.25063 19.8695 6.76263 19.8695V21.2135C6.76263 22.1095 6.84796 22.8028 7.01863 23.2935C7.18929 23.7842 7.42396 24.1255 7.72263 24.3175C8.02129 24.4882 8.36263 24.5735 8.74663 24.5735C9.36529 24.5735 9.85596 24.3708 10.2186 23.9655C10.6026 23.5388 10.7946 22.7495 10.7946 21.5975C10.7946 20.7442 10.6666 20.1042 10.4106 19.6775C10.1546 19.2508 9.74929 18.9095 9.19463 18.6535C8.66129 18.3762 7.96796 18.0668 7.11463 17.7255C6.41063 17.4055 5.80263 17.0322 5.29063 16.6055C4.77863 16.1788 4.39463 15.6348 4.13863 14.9735C3.88263 14.3122 3.75463 13.4908 3.75463 12.5095C3.75463 11.3148 3.90396 10.3442 4.20263 9.5975C4.52263 8.8295 5.05596 8.27483 5.80263 7.9335C6.54929 7.57083 7.55196 7.3895 8.81063 7.3895C10.432 7.3895 11.6693 7.76283 12.5226 8.5095C13.376 9.23483 13.8026 10.3015 13.8026 11.7095V13.9175C13.312 13.9175 12.8106 13.9175 12.2986 13.9175C11.808 13.9175 11.3066 13.9175 10.7946 13.9175V12.6055C10.7946 11.6242 10.6346 10.9202 10.3146 10.4935C10.016 10.0455 9.52529 9.8215 8.84263 9.8215C8.13863 9.8215 7.62663 10.0348 7.30663 10.4615C7.00796 10.8668 6.85863 11.5175 6.85863 12.4135C6.85863 13.1815 7.00796 13.7788 7.30663 14.2055C7.60529 14.6108 7.98929 14.9308 8.45863 15.1655C8.94929 15.4002 9.45063 15.6135 9.96263 15.8055C10.9226 16.1682 11.7013 16.5415 12.2986 16.9255C12.896 17.3095 13.3333 17.8215 13.6106 18.4615C13.888 19.1015 14.0266 20.0082 14.0266 21.1815C14.0266 22.5255 13.8026 23.5922 13.3546 24.3815C12.928 25.1495 12.3093 25.7042 11.4986 26.0455C10.7093 26.3868 9.77063 26.5575 8.68263 26.5575ZM21.1239 26.6855C20.3985 26.6855 19.7159 26.5682 19.0759 26.3335C18.4359 26.1202 17.9132 25.6828 17.5079 25.0215C17.1239 24.3388 16.9319 23.3255 16.9319 21.9815V11.4215C16.9319 10.2695 17.1452 9.39483 17.5719 8.7975C17.9985 8.17883 18.5959 7.76283 19.3639 7.5495C20.1319 7.31483 21.0172 7.1975 22.0199 7.1975C23.0225 7.1975 23.9079 7.31483 24.6759 7.5495C25.4439 7.78416 26.0412 8.21083 26.4679 8.8295C26.9159 9.42683 27.1399 10.2908 27.1399 11.4215V13.9815H24.1639V11.2935C24.1639 10.6535 24.0679 10.1735 23.8759 9.8535C23.7052 9.5335 23.4599 9.32016 23.1399 9.2135C22.8412 9.10683 22.4785 9.0535 22.0519 9.0535C21.6679 9.0535 21.3159 9.10683 20.9959 9.2135C20.6759 9.32016 20.4199 9.5335 20.2279 9.8535C20.0572 10.1735 19.9719 10.6535 19.9719 11.2935V22.6535C19.9719 23.2935 20.0572 23.7735 20.2279 24.0935C20.4199 24.4135 20.6759 24.6268 20.9959 24.7335C21.3159 24.8402 21.6679 24.8935 22.0519 24.8935C22.6705 24.8935 23.1719 24.7122 23.5559 24.3495C23.9612 23.9655 24.1639 23.4002 24.1639 22.6535V18.8135H22.2759V17.0535H27.1399V26.3335H24.8359L24.6759 24.7335C24.6332 24.8188 24.5799 24.9148 24.5159 25.0215C24.4519 25.1068 24.3985 25.1815 24.3559 25.2455C24.0999 25.6295 23.7159 25.9708 23.2039 26.2695C22.7132 26.5468 22.0199 26.6855 21.1239 26.6855Z" fill="white"/>
</g>
<defs>
<linearGradient id="paint0_linear_17105_30" x1="0.132764" y1="25.3628" x2="18.5959" y2="-1.20408" gradientUnits="userSpaceOnUse">
<stop stop-color="#003D85"/>
<stop offset="0.885417" stop-color="#B80027"/>
</linearGradient>
<clipPath id="clip0_17105_30">
<rect width="32" height="32" rx="7.11111" fill="white"/>
</clipPath>
</defs>
</svg>
