<svg xmlns="http://www.w3.org/2000/svg" xmlns:xlink="http://www.w3.org/1999/xlink"><symbol id="arrow" viewBox="0 0 18 34"><g fill="none">
<path d="M17 33L0.999999 17L17 0.999998" stroke="#AFAFAF"/>
</g></symbol><symbol id="icon-close" viewBox="0 0 20 20"><g fill="none"><path d="M.293 18.291a1 1 0 101.414 1.414L10 11.413l8.292 8.292a1 1 0 101.414-1.414l-8.292-8.292 8.292-8.292A1 1 0 1018.291.293L9.999 8.585 1.707.293A1 1 0 10.293 1.707L8.585 10 .293 18.291z"/></g></symbol><symbol id="ok" viewBox="0 0 26 26"><g fill="none">
<path fill-rule="evenodd" clip-rule="evenodd" d="M0.378326 12.757C0.378326 5.85388 5.97525 0.256958 12.8783 0.256958C19.7814 0.256958 25.3783 5.85388 25.3783 12.757C25.3783 19.66 19.7814 25.257 12.8783 25.257C5.97525 25.257 0.378326 19.66 0.378326 12.757ZM14.6879 8.82759C14.6879 7.90007 13.9572 7.14577 13.0587 7.14577C12.1602 7.14577 11.4295 7.90007 11.4295 8.82759C11.4295 9.7523 12.1602 10.5066 13.0587 10.5066C13.9572 10.5066 14.6879 9.7523 14.6879 8.82759ZM16.9936 8.82759C16.9936 11.0654 15.2291 12.8869 13.0587 12.8869C10.8882 12.8869 9.1264 11.0654 9.1264 8.82759C9.1264 6.58703 10.8882 4.76552 13.0587 4.76552C15.2291 4.76552 16.9936 6.58703 16.9936 8.82759ZM16.9341 15.2224C16.2223 15.6834 15.451 16.0102 14.65 16.2002L16.8502 18.4687C17.2995 18.9324 17.2995 19.6868 16.8502 20.1505C16.3983 20.6171 15.6703 20.6171 15.221 20.1505L13.0587 17.9211L10.899 20.1505C10.6717 20.3824 10.3767 20.4997 10.0817 20.4997C9.78674 20.4997 9.49446 20.3824 9.26713 20.1505C8.81789 19.6868 8.81789 18.9324 9.26713 18.4687L11.4674 16.2002C10.6663 16.0102 9.895 15.6834 9.18324 15.2224C8.64468 14.8732 8.4823 14.1384 8.82059 13.5825C9.15888 13.0237 9.87064 12.8561 10.4092 13.2081C12.0222 14.253 14.0952 14.253 15.7054 13.2081C16.2467 12.8561 16.9557 13.0237 17.2967 13.5825C17.635 14.1384 17.4727 14.8732 16.9341 15.2224Z" fill="white"/>
</g></symbol><symbol id="reddit" viewBox="0 0 26 26"><g fill="none">
<path fill-rule="evenodd" clip-rule="evenodd" d="M0.378326 12.757C0.378326 5.85388 5.97525 0.256958 12.8783 0.256958C19.7814 0.256958 25.3783 5.85388 25.3783 12.757C25.3783 19.66 19.7814 25.257 12.8783 25.257C5.97525 25.257 0.378326 19.66 0.378326 12.757ZM13.0978 6.36437C13.3659 6.03855 13.7838 5.81262 14.2292 5.81262C14.949 5.81262 15.4324 6.30492 15.6814 6.63073C15.7204 6.68127 15.7553 6.72832 15.7869 6.7708C15.8565 6.86426 15.9095 6.93559 15.9516 6.9732C16.0128 7.0279 16.0297 7.03028 16.1205 7.03028V8.24793C15.7954 8.24793 15.4957 8.09811 15.293 7.92449C15.1136 7.77071 14.9937 7.6132 14.8924 7.48005C14.8793 7.46288 14.8665 7.44612 14.854 7.42982C14.8318 7.40086 14.8113 7.37364 14.7921 7.34811C14.6238 7.12418 14.5532 7.03028 14.2292 7.03028C14.0625 7.03028 13.9907 7.08022 13.8915 7.20151C13.7923 7.3228 13.6994 7.54398 13.6213 7.84839C13.4968 8.33355 13.4524 8.97805 13.4356 9.59877C14.6809 9.68439 15.8081 10.0554 16.7453 10.6262C17.1273 10.3051 17.5875 10.1267 18.0286 10.1315C18.531 10.1363 19.008 10.3527 19.3626 10.7974C20.0402 11.6464 19.9621 13.0353 19.1769 13.8606C19.2254 14.115 19.2613 14.3766 19.2613 14.6406C19.2613 17.4351 16.4033 19.7015 12.8783 19.7015C9.35331 19.7015 6.49531 17.4374 6.49531 14.6406C6.49531 14.3766 6.53119 14.115 6.57974 13.8606C5.79453 13.0353 5.71643 11.6464 6.39399 10.7974C6.7486 10.3527 7.22564 10.1363 7.728 10.1315C8.16916 10.1267 8.62931 10.3051 9.01136 10.6262C9.95277 10.053 11.0863 9.68201 12.338 9.59877C12.3506 8.92573 12.4034 8.17897 12.5744 7.50593C12.682 7.08736 12.8298 6.69019 13.0978 6.36437ZM16.2218 7.63911C16.2218 6.69257 16.9015 5.92678 17.7416 5.92678C18.5816 5.92678 19.2613 6.69257 19.2613 7.63911C19.2613 8.58564 18.5816 9.35143 17.7416 9.35143C16.9015 9.35143 16.2218 8.58564 16.2218 7.63911ZM18.721 7.63911C18.721 7.03028 18.2819 6.53561 17.7416 6.53561C17.2012 6.53561 16.7622 7.03028 16.7622 7.63911C16.7622 8.24793 17.2012 8.74261 17.7416 8.74261C18.2819 8.74261 18.721 8.24793 18.721 7.63911ZM18.4001 14.6406C18.4001 12.4265 15.8693 10.5501 12.8783 10.5501C9.88734 10.5501 7.35651 12.4265 7.35651 14.6406C7.35651 16.8571 9.88734 18.7312 12.8783 18.7312C15.8693 18.7312 18.4001 16.8571 18.4001 14.6406ZM8.20082 11.216C8.05096 11.1422 7.89476 11.1042 7.74489 11.1018C7.46838 11.0994 7.21719 11.216 7.03567 11.4443C6.7866 11.7558 6.73171 12.3433 6.93435 12.8141C7.22775 12.2125 7.65835 11.6797 8.20082 11.216ZM18.721 11.4443C18.5394 11.216 18.2882 11.0994 18.0117 11.1018C17.8619 11.1042 17.7057 11.1422 17.5558 11.216C18.0983 11.6797 18.5289 12.2125 18.8223 12.8141C19.0249 12.3433 18.97 11.7558 18.721 11.4443ZM9.73747 13.7274C9.73747 13.1186 10.1765 12.6239 10.7169 12.6239C11.2572 12.6239 11.6963 13.1186 11.6963 13.7274C11.6963 14.3362 11.2572 14.8309 10.7169 14.8309C10.1765 14.8309 9.73747 14.3362 9.73747 13.7274ZM14.0603 13.7274C14.0603 13.1186 14.4994 12.6239 15.0398 12.6239C15.5801 12.6239 16.0192 13.1186 16.0192 13.7274C16.0192 14.3362 15.5801 14.8309 15.0398 14.8309C14.4994 14.8309 14.0603 14.3362 14.0603 13.7274ZM12.8783 17.9511C11.6013 17.9511 10.5375 17.1734 10.1934 16.372C10.8182 16.8262 11.787 17.133 12.8783 17.133C13.9696 17.133 14.9553 16.8262 15.5801 16.372C15.2361 17.1734 14.1553 17.9511 12.8783 17.9511Z" fill="white"/>
</g></symbol><symbol id="vk" viewBox="0 0 26 26"><g fill="none">
<path fill-rule="evenodd" clip-rule="evenodd" d="M0.378326 12.757C0.378326 5.85388 5.97525 0.256958 12.8783 0.256958C19.7814 0.256958 25.3783 5.85388 25.3783 12.757C25.3783 19.66 19.7814 25.257 12.8783 25.257C5.97525 25.257 0.378326 19.66 0.378326 12.757ZM15.0191 15.9766C14.6807 15.5844 14.3683 15.2224 14.1011 15.3087C13.6537 15.4523 13.6681 16.4288 13.6681 16.4288C13.6681 16.4288 13.6727 16.6377 13.569 16.7488C13.4579 16.8683 13.2407 16.8933 13.2407 16.8933H12.5207C12.5207 16.8933 10.9315 16.991 9.53305 15.5176C8.00776 13.9126 6.66075 10.7264 6.66075 10.7264C6.66075 10.7264 6.58342 10.518 6.66769 10.417C6.76262 10.3031 7.021 10.2957 7.021 10.2957L8.74077 10.2846C8.74077 10.2846 8.90284 10.3119 9.0186 10.3976C9.11584 10.4698 9.16956 10.6018 9.16956 10.6018C9.16956 10.6018 9.44693 11.3121 9.81413 11.9548C10.5332 13.2116 10.8676 13.4857 11.1121 13.3514C11.4681 13.1555 11.3621 11.5761 11.3621 11.5761C11.3621 11.5761 11.3677 11.0033 11.182 10.7477C11.0375 10.5504 10.7675 10.4925 10.6472 10.4763C10.5513 10.4634 10.7092 10.2369 10.9153 10.1337C11.2255 9.98132 11.7728 9.97159 12.4174 9.98132C12.9217 9.98595 13.0661 10.0174 13.2639 10.0656C13.7198 10.1769 13.7057 10.5346 13.6752 11.3065C13.6661 11.5364 13.6556 11.8031 13.6556 12.1109C13.6556 12.1809 13.6535 12.2555 13.6514 12.3323C13.6406 12.7263 13.6282 13.1766 13.8843 13.3445C14.0177 13.4311 14.3395 13.3574 15.1457 11.9734C15.5016 11.3631 15.7745 10.6525 15.8107 10.5582C15.8133 10.5514 15.8147 10.5478 15.8148 10.5476C15.8829 10.3643 16.0324 10.3096 16.2089 10.3092L18.0208 10.2967C18.0208 10.2967 18.5639 10.2318 18.6529 10.4814C18.7455 10.7407 18.4496 11.3496 17.7101 12.3466C17.0076 13.2932 16.6659 13.6406 16.6983 13.9487C16.7218 14.1729 16.9433 14.3764 17.3679 14.7748C18.2623 15.6138 18.4991 16.0526 18.5549 16.1561C18.5592 16.1641 18.5625 16.1701 18.5649 16.1742C18.9622 16.8419 18.1217 16.8937 18.1217 16.8937L16.5136 16.9169C16.5136 16.9169 16.1667 16.985 15.7139 16.6696C15.4747 16.5046 15.2413 16.2341 15.0191 15.9766Z" fill="white"/>
</g></symbol></svg>