<svg width="26" height="26" viewBox="0 0 26 26" xmlns="http://www.w3.org/2000/svg"><path fill-rule="evenodd" clip-rule="evenodd" d="M0.378326 12.757C0.378326 5.85388 5.97525 0.256958 12.8783 0.256958C19.7814 0.256958 25.3783 5.85388 25.3783 12.757C25.3783 19.66 19.7814 25.257 12.8783 25.257C5.97525 25.257 0.378326 19.66 0.378326 12.757ZM13.0978 6.36437C13.3659 6.03855 13.7838 5.81262 14.2292 5.81262C14.949 5.81262 15.4324 6.30492 15.6814 6.63073C15.7204 6.68127 15.7553 6.72832 15.7869 6.7708C15.8565 6.86426 15.9095 6.93559 15.9516 6.9732C16.0128 7.0279 16.0297 7.03028 16.1205 7.03028V8.24793C15.7954 8.24793 15.4957 8.09811 15.293 7.92449C15.1136 7.77071 14.9937 7.6132 14.8924 7.48005C14.8793 7.46288 14.8665 7.44612 14.854 7.42982C14.8318 7.40086 14.8113 7.37364 14.7921 7.34811C14.6238 7.12418 14.5532 7.03028 14.2292 7.03028C14.0625 7.03028 13.9907 7.08022 13.8915 7.20151C13.7923 7.3228 13.6994 7.54398 13.6213 7.84839C13.4968 8.33355 13.4524 8.97805 13.4356 9.59877C14.6809 9.68439 15.8081 10.0554 16.7453 10.6262C17.1273 10.3051 17.5875 10.1267 18.0286 10.1315C18.531 10.1363 19.008 10.3527 19.3626 10.7974C20.0402 11.6464 19.9621 13.0353 19.1769 13.8606C19.2254 14.115 19.2613 14.3766 19.2613 14.6406C19.2613 17.4351 16.4033 19.7015 12.8783 19.7015C9.35331 19.7015 6.49531 17.4374 6.49531 14.6406C6.49531 14.3766 6.53119 14.115 6.57974 13.8606C5.79453 13.0353 5.71643 11.6464 6.39399 10.7974C6.7486 10.3527 7.22564 10.1363 7.728 10.1315C8.16916 10.1267 8.62931 10.3051 9.01136 10.6262C9.95277 10.053 11.0863 9.68201 12.338 9.59877C12.3506 8.92573 12.4034 8.17897 12.5744 7.50593C12.682 7.08736 12.8298 6.69019 13.0978 6.36437ZM16.2218 7.63911C16.2218 6.69257 16.9015 5.92678 17.7416 5.92678C18.5816 5.92678 19.2613 6.69257 19.2613 7.63911C19.2613 8.58564 18.5816 9.35143 17.7416 9.35143C16.9015 9.35143 16.2218 8.58564 16.2218 7.63911ZM18.721 7.63911C18.721 7.03028 18.2819 6.53561 17.7416 6.53561C17.2012 6.53561 16.7622 7.03028 16.7622 7.63911C16.7622 8.24793 17.2012 8.74261 17.7416 8.74261C18.2819 8.74261 18.721 8.24793 18.721 7.63911ZM18.4001 14.6406C18.4001 12.4265 15.8693 10.5501 12.8783 10.5501C9.88734 10.5501 7.35651 12.4265 7.35651 14.6406C7.35651 16.8571 9.88734 18.7312 12.8783 18.7312C15.8693 18.7312 18.4001 16.8571 18.4001 14.6406ZM8.20082 11.216C8.05096 11.1422 7.89476 11.1042 7.74489 11.1018C7.46838 11.0994 7.21719 11.216 7.03567 11.4443C6.7866 11.7558 6.73171 12.3433 6.93435 12.8141C7.22775 12.2125 7.65835 11.6797 8.20082 11.216ZM18.721 11.4443C18.5394 11.216 18.2882 11.0994 18.0117 11.1018C17.8619 11.1042 17.7057 11.1422 17.5558 11.216C18.0983 11.6797 18.5289 12.2125 18.8223 12.8141C19.0249 12.3433 18.97 11.7558 18.721 11.4443ZM9.73747 13.7274C9.73747 13.1186 10.1765 12.6239 10.7169 12.6239C11.2572 12.6239 11.6963 13.1186 11.6963 13.7274C11.6963 14.3362 11.2572 14.8309 10.7169 14.8309C10.1765 14.8309 9.73747 14.3362 9.73747 13.7274ZM14.0603 13.7274C14.0603 13.1186 14.4994 12.6239 15.0398 12.6239C15.5801 12.6239 16.0192 13.1186 16.0192 13.7274C16.0192 14.3362 15.5801 14.8309 15.0398 14.8309C14.4994 14.8309 14.0603 14.3362 14.0603 13.7274ZM12.8783 17.9511C11.6013 17.9511 10.5375 17.1734 10.1934 16.372C10.8182 16.8262 11.787 17.133 12.8783 17.133C13.9696 17.133 14.9553 16.8262 15.5801 16.372C15.2361 17.1734 14.1553 17.9511 12.8783 17.9511Z"/></svg>