<svg width="26" height="26" viewBox="0 0 26 26" xmlns="http://www.w3.org/2000/svg">
<path fill-rule="evenodd" clip-rule="evenodd" d="M0.378326 12.757C0.378326 5.85388 5.97525 0.256958 12.8783 0.256958C19.7814 0.256958 25.3783 5.85388 25.3783 12.757C25.3783 19.66 19.7814 25.257 12.8783 25.257C5.97525 25.257 0.378326 19.66 0.378326 12.757ZM14.6879 8.82759C14.6879 7.90007 13.9572 7.14577 13.0587 7.14577C12.1602 7.14577 11.4295 7.90007 11.4295 8.82759C11.4295 9.7523 12.1602 10.5066 13.0587 10.5066C13.9572 10.5066 14.6879 9.7523 14.6879 8.82759ZM16.9936 8.82759C16.9936 11.0654 15.2291 12.8869 13.0587 12.8869C10.8882 12.8869 9.1264 11.0654 9.1264 8.82759C9.1264 6.58703 10.8882 4.76552 13.0587 4.76552C15.2291 4.76552 16.9936 6.58703 16.9936 8.82759ZM16.9341 15.2224C16.2223 15.6834 15.451 16.0102 14.65 16.2002L16.8502 18.4687C17.2995 18.9324 17.2995 19.6868 16.8502 20.1505C16.3983 20.6171 15.6703 20.6171 15.221 20.1505L13.0587 17.9211L10.899 20.1505C10.6717 20.3824 10.3767 20.4997 10.0817 20.4997C9.78674 20.4997 9.49446 20.3824 9.26713 20.1505C8.81789 19.6868 8.81789 18.9324 9.26713 18.4687L11.4674 16.2002C10.6663 16.0102 9.895 15.6834 9.18324 15.2224C8.64468 14.8732 8.4823 14.1384 8.82059 13.5825C9.15888 13.0237 9.87064 12.8561 10.4092 13.2081C12.0222 14.253 14.0952 14.253 15.7054 13.2081C16.2467 12.8561 16.9557 13.0237 17.2967 13.5825C17.635 14.1384 17.4727 14.8732 16.9341 15.2224Z" />
</svg>
