<svg width="26" height="26" viewBox="0 0 26 26" fill="none" xmlns="http://www.w3.org/2000/svg">
<path fill-rule="evenodd" clip-rule="evenodd" d="M0.378326 12.757C0.378326 5.85388 5.97525 0.256958 12.8783 0.256958C19.7814 0.256958 25.3783 5.85388 25.3783 12.757C25.3783 19.66 19.7814 25.257 12.8783 25.257C5.97525 25.257 0.378326 19.66 0.378326 12.757ZM15.0191 15.9766C14.6807 15.5844 14.3683 15.2224 14.1011 15.3087C13.6537 15.4523 13.6681 16.4288 13.6681 16.4288C13.6681 16.4288 13.6727 16.6377 13.569 16.7488C13.4579 16.8683 13.2407 16.8933 13.2407 16.8933H12.5207C12.5207 16.8933 10.9315 16.991 9.53305 15.5176C8.00776 13.9126 6.66075 10.7264 6.66075 10.7264C6.66075 10.7264 6.58342 10.518 6.66769 10.417C6.76262 10.3031 7.021 10.2957 7.021 10.2957L8.74077 10.2846C8.74077 10.2846 8.90284 10.3119 9.0186 10.3976C9.11584 10.4698 9.16956 10.6018 9.16956 10.6018C9.16956 10.6018 9.44693 11.3121 9.81413 11.9548C10.5332 13.2116 10.8676 13.4857 11.1121 13.3514C11.4681 13.1555 11.3621 11.5761 11.3621 11.5761C11.3621 11.5761 11.3677 11.0033 11.182 10.7477C11.0375 10.5504 10.7675 10.4925 10.6472 10.4763C10.5513 10.4634 10.7092 10.2369 10.9153 10.1337C11.2255 9.98132 11.7728 9.97159 12.4174 9.98132C12.9217 9.98595 13.0661 10.0174 13.2639 10.0656C13.7198 10.1769 13.7057 10.5346 13.6752 11.3065C13.6661 11.5364 13.6556 11.8031 13.6556 12.1109C13.6556 12.1809 13.6535 12.2555 13.6514 12.3323C13.6406 12.7263 13.6282 13.1766 13.8843 13.3445C14.0177 13.4311 14.3395 13.3574 15.1457 11.9734C15.5016 11.3631 15.7745 10.6525 15.8107 10.5582C15.8133 10.5514 15.8147 10.5478 15.8148 10.5476C15.8829 10.3643 16.0324 10.3096 16.2089 10.3092L18.0208 10.2967C18.0208 10.2967 18.5639 10.2318 18.6529 10.4814C18.7455 10.7407 18.4496 11.3496 17.7101 12.3466C17.0076 13.2932 16.6659 13.6406 16.6983 13.9487C16.7218 14.1729 16.9433 14.3764 17.3679 14.7748C18.2623 15.6138 18.4991 16.0526 18.5549 16.1561C18.5592 16.1641 18.5625 16.1701 18.5649 16.1742C18.9622 16.8419 18.1217 16.8937 18.1217 16.8937L16.5136 16.9169C16.5136 16.9169 16.1667 16.985 15.7139 16.6696C15.4747 16.5046 15.2413 16.2341 15.0191 15.9766Z" fill="white"/>
</svg>
